<?xml version="1.0" encoding="utf-8"?>
<!-- Generator: Adobe Illustrator 16.0.0, SVG Export Plug-In . SVG Version: 6.00 Build 0)  -->
<!DOCTYPE svg PUBLIC "-//W3C//DTD SVG 1.1//EN" "http://www.w3.org/Graphics/SVG/1.1/DTD/svg11.dtd">
<svg version="1.1" id="Capa_1" xmlns="http://www.w3.org/2000/svg" xmlns:xlink="http://www.w3.org/1999/xlink" x="0px" y="0px"
	 width="439.2px" height="439.2px" viewBox="0 0 439.2 439.2" style="enable-background:new 0 0 439.2 439.2;" xml:space="preserve"
	>
<g>
	<g>
		<path style="fill:#FF4909;" d="M420.8,81.2h-60.3V31.5c0-4.7-3.8-8.5-8.5-8.5h-50.1c-4.7,0-8.5,3.8-8.5,8.5v49.8H145.8V31.5
			c0-4.7-3.8-8.5-8.5-8.5H87.2c-4.7,0-8.5,3.8-8.5,8.5v49.8H18.4C8.2,81.2,0,89.5,0,99.6v298.2c0,10.2,8.2,18.4,18.4,18.4h402.4
			c10.2,0,18.4-8.2,18.4-18.4V99.6C439.2,89.5,431,81.2,420.8,81.2z M398.9,381.4H40.3V160.2l358.7-0.2V381.4z"/>
		<path style="fill:#FF4909;" d="M190.8,246.9c0.5,1.9,1.8,3.5,3.7,4.3c1.8,0.8,3.9,0.7,5.6-0.2l12-6.5v102.1c0,3.6,2.9,6.4,6.4,6.4
			h30.4c3.6,0,6.4-2.9,6.4-6.4V199.8c0-3.6-2.9-6.4-6.4-6.4h-23.5c-1.1,0-2.1,0.3-3,0.8l-35.1,18.8c-2.6,1.4-3.9,4.4-3.2,7.3
			L190.8,246.9z"/>
	</g>
</g>
</svg>
