<?xml version="1.0" encoding="utf-8"?>
<!-- Generator: Adobe Illustrator 16.0.4, SVG Export Plug-In . SVG Version: 6.00 Build 0)  -->
<!DOCTYPE svg PUBLIC "-//W3C//DTD SVG 1.1//EN" "http://www.w3.org/Graphics/SVG/1.1/DTD/svg11.dtd">
<svg version="1.1" id="Layer_1" xmlns="http://www.w3.org/2000/svg" xmlns:xlink="http://www.w3.org/1999/xlink" x="0px" y="0px"
	 width="30px" height="40px" viewBox="0 0 30 40" enable-background="new 0 0 30 40" xml:space="preserve">
<g>
	<path fill="#FFFFFF" d="M15,10.3c1.4,0,2.6-0.5,3.6-1.5c1-1,1.5-2.2,1.5-3.6c0-1.4-0.5-2.6-1.5-3.6c-1-1-2.2-1.5-3.6-1.5
		c-1.4,0-2.6,0.5-3.6,1.5c-1,1-1.5,2.2-1.5,3.6c0,1.4,0.5,2.6,1.5,3.6C12.4,9.8,13.6,10.3,15,10.3z"/>
	<path fill="#FFFFFF" d="M29,22l-5.8-8.6c-1.1-1.6-2.4-2.4-4-2.4h-8.6c-1.5,0-2.9,0.8-4,2.4L1,22c-0.2,0.4-0.4,0.8-0.4,1.2
		c0,0.6,0.2,1.1,0.6,1.5c0.4,0.4,0.9,0.6,1.5,0.6c0.8,0,1.4-0.3,1.8-1l5.1-7.7h1v3L5.1,29c-0.1,0.2-0.2,0.5-0.2,0.7
		c0,0.4,0.1,0.7,0.4,1c0.3,0.3,0.6,0.4,1,0.4h4.3v6.1c0,0.7,0.2,1.3,0.7,1.8c0.5,0.5,1.1,0.7,1.8,0.7h3.6c0.7,0,1.3-0.2,1.8-0.7
		c0.5-0.5,0.7-1.1,0.7-1.8v-6.1h4.3c0.4,0,0.7-0.1,1-0.4c0.3-0.3,0.4-0.6,0.4-1c0-0.3-0.1-0.5-0.2-0.7l-5.6-9.2v-3h1l5.1,7.7
		c0.4,0.6,1,1,1.8,1c0.6,0,1.1-0.2,1.5-0.6s0.6-0.9,0.6-1.5C29.4,22.8,29.3,22.4,29,22z"/>
</g>
</svg>
