<?xml version="1.0" encoding="utf-8"?>
<!-- Generator: Adobe Illustrator 16.0.0, SVG Export Plug-In . SVG Version: 6.00 Build 0)  -->
<!DOCTYPE svg PUBLIC "-//W3C//DTD SVG 1.1//EN" "http://www.w3.org/Graphics/SVG/1.1/DTD/svg11.dtd">
<svg version="1.1" id="Layer_1" xmlns="http://www.w3.org/2000/svg" xmlns:xlink="http://www.w3.org/1999/xlink" x="0px" y="0px"
	 width="211.764px" height="212.712px" viewBox="0 0 211.764 212.712" enable-background="new 0 0 211.764 212.712"
	 xml:space="preserve">
<polygon fill="#FFFFFF" points="47.719,63.498 63.388,47.828 85.594,70.034 85.594,0 0.001,0 0.001,85.593 69.815,85.593 "/>
<polygon fill="#FFFFFF" points="148.266,47.719 163.936,63.388 141.729,85.594 211.764,85.594 211.764,0 126.17,0 126.17,69.815 "/>
<polygon fill="#FFFFFF" points="164.045,149.214 148.376,164.884 126.17,142.678 126.17,212.712 211.763,212.712 211.763,127.119 
	141.948,127.119 "/>
<polygon fill="#FFFFFF" points="63.498,164.994 47.828,149.325 70.034,127.119 0,127.119 0,212.711 85.593,212.711 85.593,142.897 
	"/>
</svg>
