<svg xmlns="http://www.w3.org/2000/svg" width="161.4px" height="53.3px" viewBox="0 0 161.4 53.3">
<g>
	<path d="M19.5,4h7.8l-8.4,25.7h-8.2L2.3,4h7.8l3.5,13c0.7,2.9,1.1,4.9,1.2,6c0.1-0.8,0.2-1.8,0.5-3.1s0.5-2.2,0.7-2.9L19.5,4z"/>
	<path d="M37.8,30c-3.3,0-5.9-0.9-7.7-2.6s-2.8-4.3-2.8-7.5c0-3.4,0.8-5.9,2.5-7.7s4.1-2.7,7.3-2.7c3,0,5.3,0.8,7,2.3
		s2.5,3.8,2.5,6.8v3.1H34.3c0,1.1,0.5,2,1.2,2.6s1.8,0.9,3.1,0.9c1.2,0,2.3-0.1,3.3-0.3s2.1-0.6,3.3-1.2v4.9
		c-1.1,0.6-2.2,0.9-3.3,1.1S39.4,30,37.8,30z M37.4,14.1c-0.8,0-1.5,0.3-2,0.8s-0.9,1.3-1,2.4h5.9c0-1-0.3-1.7-0.8-2.3
		S38.3,14.1,37.4,14.1z"/>
	<path d="M56.6,29.7h-6.9V2.3h6.9V29.7z"/>
	<path d="M79.6,19.7c0,3.3-0.9,5.8-2.6,7.6S72.8,30,69.7,30c-3,0-5.4-0.9-7.2-2.8s-2.7-4.4-2.7-7.6c0-3.2,0.9-5.8,2.6-7.6
		s4.2-2.7,7.4-2.7c2,0,3.7,0.4,5.2,1.2s2.7,2,3.5,3.6S79.6,17.6,79.6,19.7z M66.7,19.7c0,1.7,0.2,3,0.7,3.9s1.2,1.3,2.3,1.3
		c1.1,0,1.8-0.4,2.3-1.3s0.7-2.2,0.7-3.9c0-1.7-0.2-3-0.7-3.8s-1.2-1.3-2.3-1.3c-1.1,0-1.8,0.4-2.3,1.3S66.7,18,66.7,19.7z"/>
	<path d="M91.9,30c-3.3,0-5.7-0.9-7.4-2.6S82,23.1,82,19.8c0-3.3,0.9-5.9,2.7-7.7s4.4-2.7,7.8-2.7c2.3,0,4.5,0.5,6.5,1.5L97,16
		c-0.8-0.4-1.6-0.7-2.3-0.9s-1.4-0.3-2.2-0.3c-1.1,0-2,0.4-2.6,1.3S89,18.2,89,19.8c0,3.2,1.2,4.8,3.5,4.8c2,0,3.9-0.6,5.8-1.8v5.5
		C96.5,29.4,94.4,30,91.9,30z"/>
	<path d="M101.4,4.8c0-1,0.3-1.8,0.9-2.3s1.5-0.8,2.8-0.8s2.2,0.3,2.8,0.8s0.9,1.3,0.9,2.3c0,2-1.2,3-3.7,3
		C102.6,7.8,101.4,6.8,101.4,4.8z M108.4,29.7h-6.9V9.8h6.9V29.7z"/>
	<path d="M119.9,20.3v9.4h-6.9V4h8.4c7,0,10.5,2.5,10.5,7.6c0,3-1.5,5.3-4.4,6.9l7.5,11.2h-7.9l-5.4-9.4H119.9z M119.9,15.1h1.3
		c2.4,0,3.6-1.1,3.6-3.2c0-1.8-1.2-2.7-3.6-2.7h-1.4V15.1z"/>
	<path d="M159.7,29.7h-8l-5-8l-5,8h-7.9l8.5-13.1l-8-12.6h7.7l4.6,7.9l4.5-7.9h7.9L151,17.1L159.7,29.7z"/>
</g>
<g>
	<path d="M7.2,48.2c-0.5,0-1-0.1-1.4-0.4s-0.7-0.7-0.9-1.2H4.8l0,0.3c0,0.1,0,0.3-0.1,0.6c0,0.2-0.4,1.8-1,4.6H2.3l2.8-13.2h1.2
		l-0.2,1.7h0.1c1-1.3,2-1.9,3.1-1.9c0.8,0,1.4,0.3,1.8,0.8c0.4,0.5,0.7,1.3,0.7,2.3c0,1.2-0.2,2.2-0.6,3.2s-0.9,1.7-1.6,2.3
		C8.8,47.9,8.1,48.2,7.2,48.2z M8.8,39.9c-0.5,0-1.1,0.3-1.6,0.8c-0.6,0.5-1,1.2-1.3,2c-0.3,0.8-0.5,1.6-0.5,2.4
		c0,0.6,0.2,1.1,0.5,1.4C6.1,46.9,6.5,47,7.1,47c0.5,0,1.1-0.2,1.5-0.7c0.5-0.4,0.9-1.1,1.1-1.9c0.3-0.8,0.4-1.7,0.4-2.6
		C10.2,40.6,9.7,39.9,8.8,39.9z"/>
	<path d="M17.5,38.8c1.1,0,1.9,0.3,2.5,0.9c0.6,0.6,0.9,1.5,0.9,2.6c0,1-0.2,2-0.6,2.9s-0.9,1.6-1.6,2.1s-1.4,0.8-2.3,0.8
		c-1.1,0-1.9-0.3-2.5-0.9S13,45.7,13,44.6c0-1.1,0.2-2,0.6-3c0.4-0.9,0.9-1.6,1.6-2.1C15.9,39.1,16.7,38.8,17.5,38.8z M19.5,42.1
		c0-0.6-0.2-1.2-0.5-1.5c-0.3-0.4-0.8-0.6-1.4-0.6c-0.6,0-1.1,0.2-1.6,0.6c-0.5,0.4-0.8,1-1.1,1.7c-0.3,0.7-0.4,1.5-0.4,2.4
		c0,0.7,0.2,1.3,0.5,1.7c0.4,0.4,0.9,0.6,1.5,0.6c0.6,0,1.1-0.2,1.6-0.6s0.8-1,1.1-1.7C19.3,43.9,19.5,43.1,19.5,42.1z"/>
	<path d="M27.9,48l-0.3-5c0-0.5,0-1,0-1.4v-1.3h-0.1l-0.4,1l-0.7,1.6L24,48h-1.7L22,38.9h1.4l0.1,4.9v0.7c0,0.8,0,1.6-0.1,2.2h0
		c0.3-0.7,0.6-1.6,1.1-2.7l2.4-5.2h1.5l0.3,4.9c0,0.9,0,1.7,0,2.2v0.4l0,0.3h0c0.2-0.5,0.4-1.1,0.7-1.8c0.3-0.7,1.2-2.8,2.7-6.1h1.5
		L29.6,48H27.9z"/>
	<path d="M36.9,48.2c-1,0-1.8-0.3-2.4-0.9s-0.9-1.4-0.9-2.5c0-1,0.2-2,0.6-3c0.4-1,1-1.7,1.6-2.2s1.4-0.8,2.2-0.8
		c0.8,0,1.5,0.2,1.9,0.6c0.4,0.4,0.6,0.9,0.6,1.5c0,1-0.5,1.8-1.4,2.3c-0.9,0.6-2.2,0.9-3.9,0.9h-0.3l0,0.7c0,0.7,0.2,1.3,0.5,1.7
		c0.3,0.4,0.9,0.6,1.6,0.6c0.3,0,0.7,0,1.1-0.1c0.4-0.1,0.8-0.3,1.4-0.5v1.2c-0.5,0.2-1,0.4-1.4,0.5C37.9,48.1,37.4,48.2,36.9,48.2z
		 M38.1,39.9c-0.6,0-1.1,0.3-1.6,0.8c-0.5,0.5-0.9,1.2-1.1,2.2h0.1c1.3,0,2.2-0.2,2.9-0.5c0.7-0.3,1-0.8,1-1.4
		c0-0.3-0.1-0.5-0.3-0.7C38.8,40,38.5,39.9,38.1,39.9z"/>
	<path d="M47.1,38.8c0.4,0,0.7,0,1,0.1l-0.3,1.2C47.5,40,47.3,40,47,40c-0.5,0-1,0.2-1.4,0.5c-0.4,0.3-0.8,0.8-1.2,1.4
		c-0.3,0.6-0.6,1.2-0.7,2L42.8,48h-1.4l1.9-9.1h1.2l-0.2,1.7h0.1c0.4-0.5,0.7-0.9,1-1.1c0.3-0.2,0.5-0.4,0.8-0.5
		C46.5,38.8,46.8,38.8,47.1,38.8z"/>
	<path d="M51,48.2c-1,0-1.8-0.3-2.4-0.9s-0.9-1.4-0.9-2.5c0-1,0.2-2,0.6-3c0.4-1,1-1.7,1.6-2.2s1.4-0.8,2.2-0.8
		c0.8,0,1.5,0.2,1.9,0.6c0.4,0.4,0.6,0.9,0.6,1.5c0,1-0.5,1.8-1.4,2.3c-0.9,0.6-2.2,0.9-3.9,0.9h-0.3l0,0.7c0,0.7,0.2,1.3,0.5,1.7
		c0.3,0.4,0.9,0.6,1.6,0.6c0.3,0,0.7,0,1.1-0.1c0.4-0.1,0.8-0.3,1.4-0.5v1.2c-0.5,0.2-1,0.4-1.4,0.5C52,48.1,51.5,48.2,51,48.2z
		 M52.2,39.9c-0.6,0-1.1,0.3-1.6,0.8c-0.5,0.5-0.9,1.2-1.1,2.2h0.1c1.3,0,2.2-0.2,2.9-0.5c0.7-0.3,1-0.8,1-1.4
		c0-0.3-0.1-0.5-0.3-0.7C52.9,40,52.6,39.9,52.2,39.9z"/>
	<path d="M60.3,38.8c1.1,0,1.9,0.5,2.3,1.6h0.1c0.1-0.9,0.2-1.6,0.4-2.3l0.6-3h1.4L62.4,48h-1.2l0.2-1.7h-0.1
		c-0.6,0.7-1.1,1.2-1.6,1.5s-1,0.4-1.5,0.4c-0.8,0-1.4-0.3-1.8-0.8s-0.6-1.3-0.6-2.3c0-1.2,0.2-2.3,0.6-3.3s0.9-1.7,1.6-2.3
		C58.7,39,59.5,38.8,60.3,38.8z M58.7,47c0.5,0,1.1-0.3,1.6-0.8c0.6-0.5,1-1.2,1.3-2c0.3-0.8,0.5-1.6,0.5-2.5c0-0.6-0.1-1.1-0.4-1.4
		s-0.7-0.5-1.3-0.5c-0.6,0-1.1,0.2-1.6,0.7c-0.5,0.5-0.9,1.1-1.2,1.9c-0.3,0.8-0.4,1.7-0.4,2.6C57.2,46.4,57.7,47,58.7,47z"/>
	<path d="M73.1,48.2c-0.5,0-1-0.1-1.4-0.4c-0.4-0.3-0.7-0.7-0.9-1.2h-0.1L70.1,48h-1l2.7-12.9h1.4c-0.3,1.3-0.5,2.4-0.7,3.1
		c-0.2,0.7-0.4,1.5-0.6,2.5H72c0.5-0.7,1-1.1,1.5-1.4c0.5-0.3,1-0.5,1.5-0.5c0.8,0,1.4,0.3,1.8,0.8s0.7,1.3,0.7,2.3
		c0,1.2-0.2,2.2-0.6,3.2c-0.4,1-0.9,1.7-1.6,2.3C74.7,47.9,73.9,48.2,73.1,48.2z M74.6,39.9c-0.5,0-1.1,0.3-1.6,0.8
		c-0.6,0.5-1,1.2-1.3,2c-0.3,0.8-0.5,1.6-0.5,2.4c0,0.6,0.2,1.1,0.5,1.4C72,46.9,72.4,47,73,47c0.5,0,1.1-0.2,1.5-0.7
		c0.5-0.4,0.9-1.1,1.1-1.9c0.3-0.8,0.4-1.7,0.4-2.6C76.1,40.6,75.6,39.9,74.6,39.9z"/>
	<path d="M78.5,38.9h1.4l0.6,4.5c0.1,0.4,0.1,0.9,0.2,1.7c0.1,0.7,0.1,1.3,0.1,1.8h0c0.2-0.5,0.4-1,0.7-1.7s0.5-1.1,0.6-1.3l2.7-5.1
		h1.5l-5.8,10.6c-0.5,1-1,1.6-1.5,2s-1.1,0.6-1.8,0.6c-0.4,0-0.8-0.1-1.2-0.2v-1.1c0.3,0.1,0.7,0.1,1.1,0.1c0.5,0,0.8-0.1,1.2-0.4
		c0.3-0.3,0.6-0.7,0.9-1.2l0.6-1.1L78.5,38.9z"/>
	<path d="M91.4,48H90l2.6-12.1h6.1l-0.2,1.3h-4.7l-0.9,4.4h4.4l-0.3,1.3h-4.4L91.4,48z"/>
	<path d="M107.7,40.7c0,1.4-0.3,2.7-0.9,3.8s-1.4,2-2.5,2.6S102,48,100.6,48h-2.9l2.6-12.1h2.8c1.5,0,2.7,0.4,3.5,1.2
		C107.3,38,107.7,39.2,107.7,40.7z M100.7,46.8c1.1,0,2.1-0.3,2.9-0.8c0.8-0.5,1.5-1.2,1.9-2.1c0.5-0.9,0.7-2,0.7-3.2
		s-0.3-2.1-0.9-2.7c-0.6-0.6-1.4-0.9-2.5-0.9h-1.5l-2.1,9.7H100.7z"/>
	<path d="M114.3,44.2h-4.1l-2,3.9h-1.6l6.6-12.1h1.4l1.5,12.1h-1.4L114.3,44.2z M114.2,42.9l-0.3-2.5c-0.1-1-0.2-2-0.2-2.9
		c-0.2,0.5-0.4,1-0.7,1.5c-0.2,0.5-0.9,1.8-2.1,3.9H114.2z"/>
	<path d="M132.5,40.5c0,1.5-0.2,2.8-0.7,4c-0.5,1.2-1.2,2.1-2.1,2.7c-0.9,0.6-2,1-3.1,1c-1.4,0-2.5-0.4-3.3-1.2
		c-0.8-0.8-1.2-2-1.2-3.5c0-1.5,0.3-2.8,0.8-4s1.3-2.1,2.2-2.8c0.9-0.7,2-1,3.1-1c1.4,0,2.4,0.4,3.2,1.3S132.5,39,132.5,40.5z
		 M128,37c-0.9,0-1.6,0.3-2.3,0.8s-1.2,1.3-1.6,2.3c-0.4,1-0.6,2.1-0.6,3.3c0,1.1,0.3,2,0.8,2.6c0.5,0.6,1.3,0.9,2.2,0.9
		c0.8,0,1.6-0.3,2.3-0.8c0.7-0.5,1.2-1.3,1.6-2.3s0.6-2.1,0.6-3.3c0-1.1-0.3-2-0.8-2.6C129.7,37.3,128.9,37,128,37z"/>
	<path d="M137.2,48.2c-0.5,0-1-0.1-1.4-0.4s-0.7-0.7-0.9-1.2h-0.1l0,0.3c0,0.1,0,0.3-0.1,0.6c0,0.2-0.4,1.8-1,4.6h-1.4l2.8-13.2h1.2
		l-0.2,1.7h0.1c1-1.3,2-1.9,3.1-1.9c0.8,0,1.4,0.3,1.8,0.8c0.4,0.5,0.7,1.3,0.7,2.3c0,1.2-0.2,2.2-0.6,3.2s-0.9,1.7-1.6,2.3
		C138.8,47.9,138,48.2,137.2,48.2z M138.7,39.9c-0.5,0-1.1,0.3-1.6,0.8c-0.6,0.5-1,1.2-1.3,2c-0.3,0.8-0.5,1.6-0.5,2.4
		c0,0.6,0.2,1.1,0.5,1.4c0.3,0.3,0.8,0.5,1.3,0.5c0.5,0,1.1-0.2,1.5-0.7c0.5-0.4,0.9-1.1,1.1-1.9c0.3-0.8,0.4-1.7,0.4-2.6
		C140.2,40.6,139.7,39.9,138.7,39.9z"/>
	<path d="M146.2,48.2c-1,0-1.8-0.3-2.4-0.9s-0.9-1.4-0.9-2.5c0-1,0.2-2,0.6-3c0.4-1,1-1.7,1.6-2.2s1.4-0.8,2.2-0.8
		c0.8,0,1.5,0.2,1.9,0.6c0.4,0.4,0.6,0.9,0.6,1.5c0,1-0.5,1.8-1.4,2.3c-0.9,0.6-2.2,0.9-3.9,0.9h-0.3l0,0.7c0,0.7,0.2,1.3,0.5,1.7
		c0.3,0.4,0.9,0.6,1.6,0.6c0.3,0,0.7,0,1.1-0.1c0.4-0.1,0.8-0.3,1.4-0.5v1.2c-0.5,0.2-1,0.4-1.4,0.5
		C147.1,48.1,146.7,48.2,146.2,48.2z M147.4,39.9c-0.6,0-1.1,0.3-1.6,0.8c-0.5,0.5-0.9,1.2-1.1,2.2h0.1c1.3,0,2.2-0.2,2.9-0.5
		c0.7-0.3,1-0.8,1-1.4c0-0.3-0.1-0.5-0.3-0.7C148.1,40,147.8,39.9,147.4,39.9z"/>
	<path d="M156.2,48l1.2-5.7c0.1-0.6,0.2-1,0.2-1.2c0-0.3-0.1-0.6-0.3-0.8c-0.2-0.2-0.5-0.3-0.9-0.3c-0.5,0-1,0.2-1.4,0.5
		c-0.5,0.3-0.9,0.8-1.2,1.4c-0.4,0.6-0.6,1.4-0.8,2.2l-0.8,3.9h-1.4l1.9-9.1h1.2l-0.2,1.7h0.1c0.5-0.7,1-1.2,1.5-1.4
		c0.5-0.3,1-0.4,1.5-0.4c0.7,0,1.3,0.2,1.7,0.6c0.4,0.4,0.6,0.9,0.6,1.6c0,0.4-0.1,0.9-0.2,1.5l-1.2,5.6H156.2z"/>
</g>
</svg>
